<?xml version="1.0" encoding="utf-8"?>
<!-- Generator: Adobe Illustrator 17.0.0, SVG Export Plug-In . SVG Version: 6.00 Build 0)  -->
<!DOCTYPE svg PUBLIC "-//W3C//DTD SVG 1.1//EN" "http://www.w3.org/Graphics/SVG/1.1/DTD/svg11.dtd">
<svg version="1.1" id="Layer_1" xmlns="http://www.w3.org/2000/svg" xmlns:xlink="http://www.w3.org/1999/xlink" x="0px" y="0px"
	 width="18px" height="18px" viewBox="0 0 18 18" enable-background="new 0 0 18 18" xml:space="preserve">
<path fill="#FFFFFF" d="M4.026,15.574l-1.61-1.621c-0.191-0.206-0.287-0.456-0.287-0.75c0-0.302,0.099-0.551,0.298-0.75L4.71,10.18
	c0.206-0.206,0.456-0.309,0.75-0.309c0.309,0,0.577,0.121,0.805,0.364c-0.022,0.022-0.092,0.09-0.21,0.204
	c-0.118,0.114-0.197,0.193-0.237,0.237c-0.04,0.044-0.096,0.114-0.165,0.21c-0.07,0.095-0.118,0.189-0.143,0.281
	c-0.026,0.092-0.039,0.193-0.039,0.303c0,0.294,0.103,0.544,0.309,0.75c0.206,0.206,0.456,0.309,0.75,0.309
	c0.11,0,0.211-0.013,0.303-0.039c0.092-0.026,0.186-0.074,0.281-0.143c0.095-0.07,0.165-0.125,0.21-0.165
	c0.044-0.04,0.123-0.12,0.237-0.237c0.114-0.118,0.182-0.187,0.204-0.21C8,11.956,8.118,12.221,8.118,12.529
	c0,0.294-0.103,0.544-0.309,0.75l-2.294,2.294c-0.206,0.206-0.456,0.309-0.75,0.309C4.478,15.882,4.232,15.779,4.026,15.574
	L4.026,15.574z M11.735,7.765c0.022-0.022,0.092-0.09,0.21-0.204c0.118-0.114,0.197-0.193,0.237-0.237
	c0.04-0.044,0.095-0.114,0.165-0.21c0.07-0.096,0.118-0.189,0.143-0.281c0.026-0.092,0.039-0.193,0.039-0.303
	c0-0.294-0.103-0.544-0.309-0.75c-0.206-0.206-0.456-0.309-0.75-0.309c-0.11,0-0.211,0.013-0.303,0.039
	c-0.092,0.026-0.186,0.073-0.281,0.143c-0.096,0.07-0.165,0.125-0.21,0.165c-0.044,0.04-0.123,0.119-0.237,0.237
	c-0.114,0.118-0.182,0.188-0.204,0.21c-0.228-0.221-0.342-0.485-0.342-0.794c0-0.302,0.099-0.551,0.298-0.75l2.294-2.294
	c0.206-0.206,0.456-0.309,0.75-0.309c0.287,0,0.533,0.103,0.739,0.309l1.61,1.621c0.199,0.213,0.298,0.463,0.298,0.75
	c0,0.294-0.103,0.544-0.309,0.75L13.29,7.82c-0.206,0.206-0.456,0.309-0.75,0.309C12.232,8.129,11.963,8.007,11.735,7.765
	L11.735,7.765z M7.015,17.074l2.294-2.294c0.618-0.618,0.926-1.368,0.926-2.25c0-0.897-0.324-1.662-0.971-2.294l0.971-0.971
	c0.632,0.647,1.401,0.971,2.305,0.971c0.882,0,1.629-0.305,2.239-0.915l2.283-2.272C17.687,6.437,18,5.687,18,4.798
	c0-0.882-0.305-1.629-0.915-2.239l-1.61-1.621C14.864,0.312,14.118,0,13.235,0c-0.882,0-1.632,0.309-2.25,0.926L8.691,3.221
	c-0.618,0.618-0.926,1.368-0.926,2.25c0,0.897,0.323,1.662,0.971,2.294L7.765,8.735C7.132,8.088,6.364,7.765,5.46,7.765
	c-0.882,0-1.629,0.305-2.239,0.915l-2.283,2.272C0.313,11.562,0,12.312,0,13.202c0,0.882,0.305,1.629,0.915,2.239l1.61,1.621
	C3.136,17.687,3.882,18,4.765,18S6.397,17.691,7.015,17.074L7.015,17.074z"/>
</svg>
